<svg xmlns="http://www.w3.org/2000/svg" viewBox="0 0 189.83 340.91"><path d="M112.3 339a1.85 1.85 0 0 0-1.83-1.87H1.82A1.85 1.85 0 0 0 0 339a1.85 1.85 0 0 0 1.82 1.87h108.64a1.85 1.85 0 0 0 1.82-1.87z" fill="#dbdedf"/><path d="M165.55 80.88a2.1 2.1 0 0 1-2.83.88l-8.45-5.26a2.1 2.1 0 0 1-.52-2.92l14.13-23.3a2.1 2.1 0 0 1 2.83-.88l8.46 5.25a2.1 2.1 0 0 1 .52 2.92z" fill="#f6c583"/><path d="M167 83.08a2.27 2.27 0 0 1-3 .92l-9.12-5.67a2.27 2.27 0 0 1-.56-3.15l15.25-25.14a2.27 2.27 0 0 1 3.06-.95l9.1 5.66a2.27 2.27 0 0 1 .57 3.15z" fill="#151515"/><path d="M130.07 141.84a7.7 7.7 0 0 0 9-3.8l30.2-42.66 10-12.1c3-3 3.73-9.2 1.35-12.12-2.7-3.3-6.73-3.5-9.73-.47l-10.7 10.83c-1.5 1-1 4.42-1.52 6.14l-27.87 30.46-18.22-29.56a7.7 7.7 0 0 0-13.06 8.2l26.2 41.77a7.7 7.7 0 0 0 4.35 3.3z" fill="#f49f64"/><path d="M113.78 85.33c-15.47-16.84-6.9 11.55-11 16.14l22.5 36.86a8.82 8.82 0 0 0 4.63 3.74 8 8 0 0 0 2.6.32c2.9-.12 5.72-2.1 7.6-4.65l24.9-31.3c-11 .8-14.22-8.08-15.25-10.75l-18.28 21.54z" fill="#023950"/><path d="M162 79.44l6.4 6.82s-9.44.45-12 4.44c.06 0 .8-9.55 5.6-11.26z" fill="#dd5a49"/><path d="M168.9 84.3a2.26 2.26 0 0 1-3.04.94l-9.12-5.67a2.27 2.27 0 0 1-.56-3.15l15.25-25.14a2.27 2.27 0 0 1 3.06-.95l9.1 5.67a2.27 2.27 0 0 1 .56 3.15z" fill="#353435"/><path d="M177.62 81.08a2.93 2.93 0 0 1-.93-.13 3 3 0 0 1-2-3.73c.73-2.4 1.56-6.54 1.1-8.3-.36-1.42-3.35-3.9-5.28-5.07a3 3 0 1 1 3.1-5.1c1.13.7 6.85 4.34 8 8.68 1 4-.83 10.33-1.2 11.55a3 3 0 0 1-2.8 2.1z" fill="#f49f64"/><path d="M174.46 82.7h-.25a3 3 0 0 1-2.76-3.16 17.53 17.53 0 0 0-.3-5.17 58.2 58.2 0 0 0-6.35-4.82 3 3 0 1 1 3.34-4.93c1.45 1 6.27 4.32 7.7 6.07 1.75 2.12 1.72 6.7 1.55 9.25a3 3 0 0 1-2.94 2.76z" fill="#f49f64"/><path d="M171.4 86.83h-.26a3 3 0 0 1-2.77-3.17 17.4 17.4 0 0 0-.3-5.18 44.4 44.4 0 0 0-5-4.1 3 3 0 0 1 3.5-4.82 44.83 44.83 0 0 1 6.2 5.25c1.75 2.15 1.72 6.73 1.55 9.27a3 3 0 0 1-2.93 2.76z" fill="#f49f64"/><path d="M169.08 93.53L167.8 93c-1.65 0-1.27-3.3-1.28-4.93a21.42 21.42 0 0 0-.67-5.82 45.25 45.25 0 0 0-5-4.12 3 3 0 0 1 3.5-4.82 45.13 45.13 0 0 1 6.2 5.25c1.7 2.06 1.94 6.84 1.95 9.5 0 1.64-1.8 5.46-3.42 5.48z" fill="#f49f64"/><path d="M148.2 97.58l1.53-1.8c1.22 3.06 5 11.7 15.35 10.93L140 137.77a10.9 10.9 0 0 1-7.06 4.58c-5.76-7.8-4.1-17.4-1.54-25.1z" fill="#317491"/><path d="M164.55 107.37c1.88-2.25 3.5-5.7 2.14-7.86s-9.1-8.2-11.84-7.88-4.24 3.1-7.27 6.62S136.1 112 136.1 112s3.38 2.85 3.64 3 5.8 0 6.2 0 10.42-5 10.42-5" fill="#317491"/><path d="M168.6 96.3s-8.1-.08-12.22-6.37L153.83 93s.82 5 11.85 7.66z" fill="#023950"/><path d="M10.9 155.94a1.84 1.84 0 0 0 2.45-.86l15.5-32.26a1.85 1.85 0 0 0-.87-2.46 1.85 1.85 0 0 0-2.46.87L10 153.47a1.85 1.85 0 0 0 .87 2.46z" fill="#050506"/><path d="M26.73 122.94c-3.46-1.67-6.17-3.23-6.17-3.57l4.67-9.73c.2-.24 3.15.9 6.64 2.58s6.23 3.27 6.18 3.58l-4.67 9.73c-.25.2-3.18-.93-6.65-2.6zM7.7 162.58c-3.46-1.66-6.17-3.23-6.17-3.56l4.67-9.73c.2-.25 3.15.9 6.65 2.57s6.23 3.27 6.18 3.58l-4.67 9.73c-.27.2-3.2-.93-6.66-2.6z" fill="#e84b54"/><path d="M162.65 228.8a1.84 1.84 0 0 0 2.46-.86l15.5-32.26a1.84 1.84 0 0 0-.87-2.46 1.84 1.84 0 0 0-2.46.86l-15.5 32.26a1.85 1.85 0 0 0 .87 2.46z" fill="#050506"/><path d="M178.5 195.8c-3.46-1.66-6.17-3.23-6.17-3.57l4.67-9.73c.2-.24 3.15.9 6.65 2.58s6.23 3.26 6.18 3.58l-4.67 9.73c-.27.2-3.16-.94-6.66-2.6zM159.46 235.45c-3.46-1.66-6.17-3.23-6.17-3.57l4.66-9.73c.2-.24 3.15.9 6.64 2.58s6.23 3.26 6.18 3.57l-4.66 9.7c-.27.25-3.2-.9-6.66-2.55z" fill="#e84b54"/><path fill="#00a256" d="M85.8 307.88h16.34v18H85.8z"/><path d="M62.88 284.9l65.9-49.68a10.7 10.7 0 0 0 3.8-11l-18.38-73.54-20.73 5.18 16.7 66.8L49.76 268z" fill="#23576e"/><path d="M65.77 144.3a15 15 0 0 0 14.75 15.2l18.24.28c8.27.13 22.38 8.62 22.5.35l-13-80.77c-1.14-8.8-6.12-13-14.4-13.12l-10.93-.55a15 15 0 0 0-15.2 14.74z" fill="#e84b54"/><path d="M115.2 157.58l-8.62-79.2c-1.14-8.82-6.12-13-14.4-13.13l-7.62-.4a14.94 14.94 0 0 1 2.36-.16l10.93.54c8.27.13 13.25 4.3 14.4 13.12l13 80.77c-.06 3.87-3.18 4.07-7.33 3.17 1.08-.5-2.73-3.03-2.7-4.72z" fill="#317491"/><path fill="#44a0cc" d="M83.77 312.92l21.37-.1-2.33-84.5-8.05-78.04-21.26 2.2 7.94 76.96 2.33 83.48"/><path fill="#94b6cf" d="M81.12 303.88h27v10.33h-27z"/><path d="M104.12 325.2s23.77 5.1 26.6 6.72c1.94 1.13 2.4 5.9 2.4 5.9H85.8v-13.28z" fill="#252424"/><path fill="#e7c753" d="M85.8 337.36h47.32v3.5H85.8z"/><path fill="#04783f" d="M39.44 279.5l14.2-11.06 10.1 13-14.2 11.04z"/><path fill="#7396a9" d="M45.65 268.46l8.15-6.35 16.6 21.32-8.16 6.35z"/><path d="M34.58 283l5.8-4.5 10.72 14.88s12.34 21.94 12.12 26.2c-.12 2.32-3.55 5.16-3.55 5.16l-29.77-38.1z" fill="#252424"/><path fill="#e7c753" d="M27.48 288.54l29.75 38.08 2.78-2.16-29.75-38.08-2.77 2.16"/><path d="M99.12 327a5.25 5.25 0 0 0 5.25 5.25H106a5.25 5.25 0 0 0 5.25-5.25 5.25 5.25 0 0 0-5.25-5.25h-1.67a5.25 5.25 0 0 0-5.2 5.25zM47.1 289.14a5.25 5.25 0 0 0-.33 7.42l1.13 1.23a5.25 5.25 0 0 0 7.42.3 5.25 5.25 0 0 0 .32-7.4l-1.13-1.24a5.25 5.25 0 0 0-7.4-.32z" fill="#252424"/><path d="M27.86 162.22c-1.08-9.4-7.35-13.55-14.76-17.25l-4.8-2.3-1.55-.76a8.85 8.85 0 0 1-4.17-11.8l.75-1.56a8.86 8.86 0 0 1 11.82-4.15l3.37 1.6c8.83 4.24 17 8 26.25 1.85a8.84 8.84 0 0 1 8.56-.5l1.56.75 20.1 9.63 80.3 38.55a8.85 8.85 0 0 1 5 7.64c1.07 9.4 7.35 13.56 14.77 17.26l6.34 3A8.85 8.85 0 0 1 185.6 216l-.75 1.56a8.85 8.85 0 0 1-11.83 4.2l-3.38-1.63c-8.83-4.24-17-8-26.25-1.85a8.84 8.84 0 0 1-8.56.5l-80.23-38.5-20.14-9.67-1.56-.74a8.85 8.85 0 0 1-5-7.64z" fill="#353435" stroke="#debd5d" stroke-miterlimit="10" stroke-width="2"/><path d="M62.14 106.63V88.8c0-12.14 7.35-21.7 16.5-21.34l1.18.1v38z" fill="#4ab6ae"/><path d="M51.94 127.84a8 8 0 0 1 .93.37l19.46 9.35 1.76 51-23.9-11.47c.8-16.84 1.6-38.24 1.74-49.24z" fill="#151515"/><path d="M67.72 80.44a15 15 0 0 1 8.66-13.34 122.13 122.13 0 0 1 16.92-.48s-2.25 4.05-2.25 24.24c0 8.74 7.67 57 7.67 57l-13.16-6.24s-9.45-16.06-9.35-6.55l2 22.5c-5.5-.08-7.93-1.2-10.47-5.65l-.43-48.72-.26-.37z" fill="#993343"/><path d="M89.57 198.2l-11.66-5.6-.5-2.13-12.35-5s-.52 12.3 3.54 14.84 8.74 3.7 12.4 5.28c3.13 1.42 7.92-4.8 8.57-7.4z" fill="#f49f63"/><path d="M121.64 30.07s7.8-6.5 6-15.88C125.52 3.2 110.2 0 110.2 0l-.8 4.48L97 .33 95.9 4.9S79 5.35 80.52 30.93l.4 4.6" fill="#f49f64"/><path d="M121.64 30.07s7.8-6.5 6-15.88C125.52 3.2 110.2 0 110.2 0l-.8 4.48L97 .33 95.9 4.9S79 5.35 80.52 30.93l.4 4.6" fill="#a0442d"/><path d="M86.9 67.13a9.2 9.2 0 0 0 6.75 11.12 9.2 9.2 0 0 0 11.12-6.74L117 21.65a9.2 9.2 0 0 0-6.74-11.12 9.2 9.2 0 0 0-11.12 6.74z" fill="#f49f64"/><path d="M108.64 24.2a9.18 9.18 0 0 0-5.7 6.42L91.48 77.4a9.2 9.2 0 0 1-4.56-10.27l12.24-49.87a9.2 9.2 0 0 1 18 3.7 9.2 9.2 0 0 0-8.5 3.25z" fill="#de594a"/><path d="M84.52 51.5c-.14 7.22 6 13.14 13.7 13.22l9 .1c7.7.07 14.08-5.72 14.22-12.95L122 22.1c.14-7.23-6-13.15-13.7-13.23l-9-.1C91.6 8.7 85.22 14.5 85.08 21.7z" fill="#de594a"/><path d="M95.27 64.72A12.38 12.38 0 0 1 93.45 58L94 19.3c.14-7.28 6.56-4.38 14.32-4.3l9.07.1a15 15 0 0 1 3 .34 12.38 12.38 0 0 1 1.8 6.7l-.6 30c-.13 7.28-6.55 13.1-14.3 13l-9.07-.1a14.87 14.87 0 0 1-2.96-.32z" fill="#f49f64"/><path d="M115.85 43.7a2.6 2.6 0 0 1-2.4 2.82l-1.5.1a2.6 2.6 0 0 1-2.7-2.53z" fill="#dd5a49"/><path d="M114 53.92l-9.23.53c-3.12.18-6.35-1.64-6.45-3.26" fill="none" stroke="#de594a" stroke-miterlimit="10" stroke-width="2"/><path d="M117.57 33.8h-.48l-.9.04h-.5a3.17 3.17 0 0 0-2.78 3.5l.07 1.27 3.45-.2.9-.04 3.46-.2-.06-1.27a3.17 3.17 0 0 0-3.17-3.1z" fill="#fff"/><path d="M118.06 36.33a1.4 1.4 0 0 1 1.48 1.28 1.3 1.3 0 0 1-.2.72l-2 .1H117a1.3 1.3 0 0 1-.28-.67 1.4 1.4 0 0 1 1.34-1.42z" fill="#037eb5"/><path d="M104.68 34.54h-.48l-.9.05h-.48a3.17 3.17 0 0 0-2.8 3.5l.08 1.26 3.46-.2.9-.05 3.46-.2-.07-1.26a3.18 3.18 0 0 0-3.17-3.1z" fill="#fff"/><path d="M105.17 37.07a1.4 1.4 0 0 1 1.48 1.28 1.32 1.32 0 0 1-.2.7l-2 .12h-.34a1.3 1.3 0 0 1-.26-.68 1.4 1.4 0 0 1 1.33-1.43z" fill="#037eb5"/><path d="M86.3 37.56s4.63-.34 7.3 5.16c0 0 7.28-18 .92-23.33 0 0 15.42-6.12 27.83.67 0 0-1.65-8.9-8.46-11.78S94 6.73 94 6.73 87.7 10 87 11s-4.16 6.1-4.48 6.95.12 6.32.15 6.9-.1 4.94-.07 5.3.2 3.5.1 3.86a12.7 12.7 0 0 0 .5 2.52" fill="#a0442d"/><path d="M93.86 5.2c-3.7 5.74-6.34 14.5-5.57 27.9l.46 5-7.93-2.55-.4-4.55C79.3 10.85 89.46 6.26 93.87 5.2z" fill="#f49f64"/><path d="M93.86 5.2c-3.7 5.74-6.34 14.5-5.57 27.9l.46 5-7.93-2.55-.4-4.55C79.3 10.85 89.46 6.26 93.87 5.2z" fill="#652b16"/><ellipse cx="84.3" cy="39.01" rx="5.86" ry="5.34" transform="rotate(-3.3 84.176 38.906)" fill="#f49f64"/><path d="M85.2 37.22a6 6 0 0 1 4.94 2 5.7 5.7 0 0 1-5.54 5.1 6 6 0 0 1-5-2 5.68 5.68 0 0 1 5.6-5.1z" fill="#de594a"/><path d="M80.46 183c.17 4.67-17.83 2.17-18-4.17s-.77-78.3-.77-78.3-8.54-11.47-7.58-25.32C55 62.27 81.28 63.96 87.7 64c0 0-1.9 5.33-1.9 25.5 0 8.75 7.32 55.75 7.32 55.75L80 139s.38 41.67.46 44z" fill="#317491"/><path d="M82.83 64c-5.25-.1-32.45 1-32.45 1s-2.92 28.7 13 35.22c0 0-3.38-22.83 3-28.66s16.75-5.34 16.75-5.34" fill="#317491"/><path d="M77.6 191s-7.77-3.37-12.56-2.93l-.04-6.3s8.54-.54 12.8 2.4zM65.55 72.5c-5.24 7-3.84 28.45-3.84 28.45-5.36-4.25-6.22-6.73-8.2-11.35 3-11.42 9.1-15.68 12.05-17.1zM87.7 64a21.37 21.37 0 0 0-.7 3.37c-1.86.12-4.27.2-7.15.2a34.82 34.82 0 0 1-15.12-3.08A227 227 0 0 1 87.7 64z" fill="#023950"/><path d="M99.8 33c1.73-3.22 6.36-2.83 6.54-2.8l.36-1.5c-.23-.06-5.84-.7-8.15 3.6zM120.5 33c-1.72-3.22-6.43-2.67-6.6-2.62l-.4-1.6c.22-.05 5.83-.7 8.14 3.6z" fill="#a0442d"/></svg>